<svg xmlns="http://www.w3.org/2000/svg" xml:space="preserve" style="shape-rendering:geometricPrecision; text-rendering:geometricPrecision; image-rendering:optimizeQuality; fill-rule:evenodd; clip-rule:evenodd" xmlns:xlink="http://www.w3.org/1999/xlink" viewBox="7243 12814.94 6498 6404.04">
 <defs>
  <style type="text/css">
   <![CDATA[
    .str1 {stroke:black;stroke-width:7.62}
    .str0 {stroke:#1F1A17;stroke-width:7.62}
    .fil0 {fill:none}
    .fil1 {fill:black}
   ]]>
  </style>
 </defs>
 <g id="Camada_x0020_1">
  <metadata id="CorelCorpID_0Corel-Layer"/>
  <path class="fil0 str0" d="M11229 17690c66,-2 131,-14 193,-33 85,-24 162,-67 238,-109 124,-72 234,-161 342,-255 106,-92 209,-189 299,-298 74,-92 138,-191 200,-292 54,-88 107,-177 150,-270 41,-88 75,-180 101,-275 28,-99 42,-201 57,-303 18,-129 30,-259 32,-389 1,-170 -10,-340 -52,-503 -19,-76 -46,-150 -73,-224 -48,-129 -103,-256 -173,-376 -70,-123 -158,-233 -243,-347 -22,-28 -42,-56 -63,-83"/>
  <path class="fil1" d="M11420 17635c-18,-45 -32,-92 -42,-140 -10,-47 -24,-94 -15,-140 12,-55 53,-98 92,-142 53,-62 115,-120 180,-170 -6,22 -10,45 -11,68 -2,39 1,79 6,118 5,44 12,89 4,133 -6,36 -21,69 -38,103 -22,44 -60,78 -87,121 -8,14 -13,30 -13,47l-77 2z"/>
  <path class="fil1" d="M11543 17617c64,18 133,5 201,-2 91,-11 182,-13 272,-5 90,10 177,43 267,49 73,6 146,1 218,-9 -43,40 -91,73 -143,97 -205,92 -442,69 -660,13 -62,-16 -120,-39 -182,-51 -41,-8 -83,-12 -123,-13l151 -78z"/>
  <path class="fil1" d="M11905 17379l43 -31c-11,-7 -18,-17 -22,-29 -9,-27 19,-50 34,-77 24,-40 36,-87 39,-134 4,-63 -20,-123 -41,-183 -15,-39 -33,-78 -43,-118 -11,-46 -17,-93 -20,-141 -22,34 -44,69 -66,104 -20,33 -42,63 -59,98 -19,40 -33,82 -39,126 -8,53 -10,107 7,157 20,56 66,98 107,143 13,14 26,31 38,47 7,12 15,24 22,36z"/>
  <path class="fil1" d="M11972 17355c38,-6 77,-12 113,-23 49,-17 92,-48 141,-67 52,-21 107,-33 160,-43 147,-28 297,-4 443,-24 56,-8 112,-18 167,-32 -42,36 -87,68 -133,98 -80,52 -163,100 -253,133 -146,53 -302,74 -456,47 -73,-12 -145,-32 -215,-59l33 -29z"/>
  <path class="fil1" d="M12229 17055c-12,-13 -24,-27 -37,-41 -46,-47 -103,-82 -135,-138 -49,-83 -65,-183 -48,-277 10,-51 38,-97 58,-144 16,-42 32,-83 50,-123 12,50 30,99 52,147 24,51 64,93 83,146 11,31 20,64 24,97 7,59 -1,121 -15,179 -5,20 -15,38 -14,57 1,23 9,47 23,66l-39 32z"/>
  <path class="fil1" d="M12297 17032c96,-64 198,-119 303,-164 83,-38 168,-71 257,-94 56,-14 114,-23 172,-37 81,-21 159,-46 237,-74 -33,34 -67,67 -101,101 -62,59 -119,122 -189,171 -79,55 -163,106 -255,130 -142,37 -293,24 -438,0l13 -32z"/>
  <path class="fil1" d="M12502 16660c-26,-18 -52,-38 -76,-59 -58,-50 -121,-94 -158,-158 -23,-42 -38,-85 -47,-131 -15,-82 12,-162 23,-245 7,-46 17,-92 28,-137 17,49 42,96 68,139 33,52 83,91 113,144 20,34 38,70 49,108 17,60 17,125 9,187 -2,21 -10,41 -6,62 3,18 13,35 26,48l-26 41 -6 1z"/>
  <path class="fil1" d="M12566 16623c38,-26 75,-52 111,-79 69,-50 136,-104 203,-155 42,-31 82,-63 127,-88 101,-57 225,-62 326,-116 48,-26 88,-63 115,-110 -38,77 -83,152 -136,219 -82,107 -161,218 -276,283 -115,62 -246,76 -377,83 -36,2 -72,1 -108,-2l14 -34z"/>
  <path class="fil1" d="M12712 16206l26 -53c-17,-12 -29,-27 -37,-46 -23,-56 6,-124 -17,-181 -20,-57 -65,-101 -106,-147 -37,-42 -76,-84 -111,-128 -39,-48 -77,-100 -113,-152 -38,106 -40,221 -6,328 27,85 80,159 143,225 63,65 137,118 221,153z"/>
  <path class="fil1" d="M12773 16168c18,-29 48,-49 70,-75 52,-58 94,-126 147,-185 72,-83 153,-161 243,-223 50,-34 108,-58 153,-97 39,-36 72,-78 97,-123 -8,68 -25,136 -49,200 -22,60 -50,115 -83,169 -50,80 -108,158 -183,216 -72,57 -153,97 -242,125 -58,18 -118,30 -180,35l27 -42z"/>
  <path class="fil1" d="M12820 15720c-49,-11 -96,-27 -141,-49 -84,-42 -169,-88 -222,-163 -42,-59 -59,-132 -78,-201 -19,-67 -30,-136 -34,-206 64,44 127,91 187,141 58,48 123,88 163,150 35,54 37,122 62,182 11,29 38,52 47,82l16 64z"/>
  <path class="fil1" d="M12846 15681c21,-8 38,-22 49,-40 37,-60 51,-131 84,-192 53,-103 124,-192 199,-278 46,-53 95,-103 134,-159 26,-37 46,-75 64,-116 11,80 8,162 -6,242 -13,75 -40,146 -74,213 -58,116 -136,222 -244,290 -58,36 -123,62 -189,77l-17 -37z"/>
  <path class="fil1" d="M12818 15209c-53,3 -109,-3 -161,-18 -91,-25 -174,-73 -237,-142 -47,-53 -74,-120 -104,-184 -23,-52 -42,-104 -57,-158 65,37 129,75 195,112 38,22 78,43 115,67 33,21 66,42 93,69 31,32 48,74 76,108 21,27 44,50 67,73l13 72z"/>
  <path class="fil1" d="M12843 15158c7,-33 37,-59 44,-94 22,-98 9,-203 44,-298 17,-47 45,-89 73,-132 33,-49 74,-93 100,-146 23,-47 38,-97 44,-147 17,59 30,119 39,181 11,70 28,141 17,209 -10,65 -39,124 -71,182 -46,87 -106,164 -183,226 -36,32 -77,58 -120,78l12 -58z"/>
  <path class="fil1" d="M12682 14736c-52,-4 -103,-13 -153,-23 -55,-12 -113,-18 -162,-45 -43,-25 -78,-63 -112,-101 -29,-32 -54,-67 -80,-103 -28,-38 -55,-79 -82,-119 45,23 93,43 141,58 50,17 102,24 153,39 44,13 88,26 126,52 30,21 45,62 77,82 18,11 39,17 61,15l30 146z"/>
  <path class="fil1" d="M12713 14658c0,-28 16,-53 18,-81 6,-61 2,-121 -3,-181 -3,-38 -7,-78 0,-117 9,-46 37,-88 50,-133 12,-42 21,-85 23,-129 5,-62 -1,-122 -14,-182 34,58 67,119 94,182 31,71 70,140 78,217 6,43 5,87 -3,129 -12,76 -49,145 -91,211 -26,40 -60,76 -92,112 -17,21 -34,42 -52,61l-10 -90z"/>
  <path class="fil1" d="M12504 14287c-103,13 -208,18 -309,0 -61,-12 -122,-26 -174,-58 -54,-34 -88,-93 -132,-143 -31,-36 -60,-72 -88,-109 52,18 103,33 156,45 55,12 113,13 168,26 62,15 125,28 177,65 32,22 47,63 80,84 28,17 60,26 93,26l29 65z"/>
  <path class="fil1" d="M12504 14228c2,-12 7,-26 6,-39 -3,-37 -38,-62 -53,-98 -26,-67 -39,-137 -44,-209 -4,-53 2,-105 -3,-156 -6,-81 -17,-158 -32,-236 37,25 72,52 103,84 37,38 69,80 97,126 33,57 67,116 73,182 6,51 -5,102 -17,152 -13,52 -39,101 -59,152 -16,39 -32,79 -50,118l-21 -77z"/>
  <path class="fil1" d="M12243 13992l47 -58c-27,-62 -56,-122 -88,-181 -26,-46 -48,-94 -85,-133 -65,-64 -160,-83 -247,-112 -108,-38 -220,-65 -332,-82 33,33 67,67 99,100 33,34 64,70 98,104 34,36 71,70 111,100 53,39 109,69 168,97 54,25 108,50 157,87 28,22 53,48 73,77z"/>
  <path class="fil1" d="M11198 17696c58,-19 115,-39 173,-58 69,-23 142,-39 208,-71 79,-38 146,-97 216,-150 133,-101 267,-203 379,-327 59,-64 113,-132 164,-204 69,-97 130,-202 189,-306 57,-99 115,-196 152,-303 26,-78 42,-159 56,-241 19,-96 36,-192 47,-287 10,-93 17,-185 18,-278 2,-96 -1,-193 -12,-287 -16,-117 -46,-231 -79,-344 -28,-92 -58,-184 -98,-272 -38,-88 -86,-170 -136,-253 -32,-55 -66,-111 -103,-163 -44,-61 -91,-119 -143,-173l53 -58c34,42 67,84 98,128 73,99 150,197 208,306 44,84 77,175 113,264 32,80 67,158 92,242 37,123 53,252 63,383 6,77 10,156 10,234 1,100 -3,199 -12,299 -17,156 -47,311 -98,460 -47,139 -113,273 -186,401 -76,133 -161,258 -256,375 -92,114 -189,221 -299,317 -85,75 -176,142 -270,205 -92,61 -180,128 -285,155 -87,21 -177,23 -263,9z"/>
  <path class="fil0 str0" d="M9738 17707c-66,-3 -131,-14 -193,-33 -85,-25 -162,-67 -238,-111 -124,-70 -234,-160 -342,-254 -106,-93 -209,-189 -299,-299 -74,-92 -138,-190 -200,-290 -54,-88 -107,-177 -150,-270 -41,-90 -75,-182 -101,-275 -28,-100 -42,-202 -57,-304 -18,-129 -30,-259 -32,-390 -1,-168 10,-339 52,-503 19,-77 46,-149 73,-223 48,-130 103,-257 173,-377 70,-122 158,-233 243,-346 22,-28 42,-56 63,-83"/>
  <path class="fil1" d="M9547 17651c18,-44 32,-93 42,-141 10,-45 24,-92 15,-138 -12,-56 -53,-99 -92,-142 -53,-63 -115,-120 -180,-170 6,22 10,45 11,67 2,40 -1,79 -6,119 -5,44 -12,88 -4,132 6,37 21,71 38,103 22,44 60,78 87,122 8,13 13,30 13,46l77 2z"/>
  <path class="fil1" d="M9424 17633c-64,18 -133,4 -201,-3 -91,-10 -182,-12 -272,-3 -90,8 -177,43 -267,49 -73,4 -146,1 -218,-11 43,41 91,74 143,97 205,91 442,69 660,13 62,-16 120,-41 182,-52 41,-7 83,-11 123,-14l-151 -77z"/>
  <path class="fil1" d="M9062 17396l-43 -31c11,-8 18,-17 22,-30 9,-26 -19,-50 -34,-76 -24,-41 -36,-87 -39,-133 -4,-63 20,-124 41,-183 15,-39 33,-77 43,-118 11,-47 17,-94 20,-141 22,33 44,69 66,103 20,33 42,63 59,99 19,39 33,82 39,126 8,52 10,106 -7,156 -20,58 -66,99 -107,143 -13,15 -26,31 -38,48 -7,12 -15,23 -22,36z"/>
  <path class="fil1" d="M8995 17371c-38,-6 -77,-12 -113,-24 -49,-17 -92,-48 -141,-67 -52,-20 -107,-33 -160,-43 -147,-27 -297,-3 -443,-24 -56,-8 -112,-19 -167,-33 42,36 87,69 133,99 80,52 163,99 253,132 146,54 302,75 456,48 73,-12 145,-33 215,-60l-33 -29z"/>
  <path class="fil1" d="M8738 17072c12,-13 24,-27 37,-41 46,-47 103,-83 135,-139 49,-83 65,-182 48,-276 -10,-52 -38,-97 -58,-146 -16,-41 -32,-82 -50,-123 -12,51 -30,100 -52,147 -24,52 -64,94 -83,146 -11,32 -20,65 -24,97 -7,60 1,121 15,180 5,18 15,37 14,56 -1,24 -9,47 -23,66l39 33z"/>
  <path class="fil1" d="M8670 17049c-96,-64 -198,-119 -303,-166 -83,-37 -168,-71 -257,-94 -56,-14 -114,-22 -172,-38 -81,-21 -159,-44 -237,-73 33,34 67,68 101,102 62,58 119,121 189,170 79,55 163,106 255,130 142,38 293,25 438,0l-13 -31z"/>
  <path class="fil1" d="M8465 16676c26,-18 52,-38 76,-59 58,-49 121,-94 158,-158 23,-41 38,-86 47,-132 15,-80 -12,-162 -23,-243 -7,-47 -17,-92 -28,-137 -17,47 -42,95 -68,138 -33,52 -83,92 -113,144 -20,34 -38,71 -49,108 -17,60 -17,125 -9,187 2,21 10,42 6,61 -3,19 -13,36 -26,49l26 41 6 1z"/>
  <path class="fil1" d="M8401 16638c-38,-26 -75,-52 -111,-79 -69,-50 -136,-104 -203,-155 -42,-32 -82,-63 -127,-88 -101,-57 -225,-62 -326,-117 -48,-25 -88,-63 -115,-109 38,77 83,152 136,219 82,106 161,218 276,282 115,63 246,77 377,84 36,2 72,1 108,-3l-14 -34z"/>
  <path class="fil1" d="M8254 16223l-26 -54c17,-10 29,-26 37,-44 23,-57 -6,-124 17,-182 20,-58 65,-101 106,-147 37,-43 76,-83 111,-128 39,-49 77,-100 113,-152 38,106 40,222 6,329 -27,85 -80,159 -143,223 -63,66 -137,118 -221,154z"/>
  <path class="fil1" d="M8193 16183c-18,-29 -48,-48 -70,-74 -52,-59 -94,-127 -147,-187 -72,-83 -153,-160 -243,-223 -50,-34 -108,-57 -153,-97 -39,-35 -72,-77 -97,-123 8,69 25,136 49,200 22,59 50,116 83,169 50,81 108,157 183,217 72,56 153,97 242,123 58,20 118,32 180,37l-27 -43z"/>
  <path class="fil1" d="M8147 15735c49,-9 96,-26 141,-47 84,-42 169,-88 222,-163 42,-58 59,-131 78,-200 19,-68 30,-137 34,-207 -64,45 -127,91 -187,141 -58,48 -123,88 -163,151 -35,53 -37,122 -62,182 -11,29 -38,51 -47,82l-16 62z"/>
  <path class="fil1" d="M8121 15697c-21,-7 -38,-22 -49,-39 -37,-60 -51,-131 -84,-193 -53,-101 -124,-192 -199,-278 -46,-52 -95,-102 -134,-158 -26,-37 -46,-77 -64,-117 -11,80 -8,163 6,243 13,74 40,146 74,213 58,115 136,221 244,290 58,35 123,62 189,77l17 -38z"/>
  <path class="fil1" d="M8148 15226c53,2 109,-4 161,-18 91,-25 174,-73 237,-142 47,-53 74,-120 104,-185 23,-51 42,-104 57,-158 -65,38 -129,77 -195,114 -38,22 -78,43 -115,65 -33,21 -66,43 -93,70 -31,32 -48,74 -76,108 -21,26 -44,50 -67,73l-13 73z"/>
  <path class="fil1" d="M8123 15175c-7,-34 -37,-61 -44,-94 -22,-98 -9,-204 -44,-298 -17,-48 -45,-91 -73,-132 -33,-49 -74,-93 -100,-146 -23,-47 -38,-97 -44,-149 -17,60 -30,120 -39,182 -11,70 -28,141 -17,210 10,65 39,123 71,182 46,87 106,164 183,226 36,30 77,57 120,78l-12 -58z"/>
  <path class="fil1" d="M8285 14751c52,-4 103,-12 153,-22 55,-13 113,-18 162,-46 43,-25 78,-62 112,-100 29,-32 54,-69 80,-103 28,-39 55,-79 82,-119 -45,22 -93,42 -141,58 -50,17 -102,23 -153,39 -44,12 -88,25 -126,51 -30,22 -45,63 -77,81 -18,12 -39,18 -61,17l-30 145z"/>
  <path class="fil1" d="M8253 14674c0,-28 -16,-53 -18,-82 -6,-59 -2,-121 3,-180 3,-40 7,-79 0,-117 -9,-47 -37,-88 -50,-133 -12,-42 -21,-86 -23,-129 -5,-61 1,-122 14,-181 -34,58 -67,119 -94,181 -31,71 -70,141 -78,217 -6,44 -5,87 3,129 12,76 49,146 91,210 26,41 60,77 92,114 17,21 34,41 52,61l10 -90z"/>
  <path class="fil1" d="M8462 14302c103,14 208,19 309,0 61,-11 122,-25 174,-58 54,-34 88,-93 132,-142 31,-36 60,-73 88,-111 -52,19 -103,33 -156,46 -55,12 -113,12 -168,26 -62,14 -125,28 -177,65 -32,22 -47,63 -80,83 -28,18 -60,26 -93,26l-29 64z"/>
  <path class="fil1" d="M8462 14244c-2,-13 -7,-25 -6,-39 3,-36 38,-62 53,-97 26,-67 39,-139 44,-211 4,-51 -2,-103 3,-155 6,-79 17,-158 32,-235 -37,23 -72,52 -103,83 -37,37 -69,80 -97,126 -33,58 -67,116 -73,181 -6,52 5,102 17,152 13,53 39,102 59,152 16,39 32,81 50,119l21 -78z"/>
  <path class="fil1" d="M8724 14008l-47 -58c27,-62 56,-123 88,-181 26,-47 48,-94 85,-133 65,-64 160,-83 247,-113 108,-37 220,-63 332,-81 -33,33 -67,67 -99,101 -33,33 -64,70 -98,103 -34,35 -71,71 -111,100 -53,38 -109,70 -168,97 -54,26 -108,51 -157,87 -28,22 -53,48 -73,78z"/>
  <path class="fil1" d="M9768 17713c-58,-20 -115,-39 -173,-58 -69,-24 -142,-39 -208,-71 -79,-40 -146,-98 -216,-151 -133,-101 -267,-203 -379,-326 -59,-64 -113,-133 -164,-204 -69,-97 -130,-203 -189,-307 -57,-98 -115,-196 -152,-302 -26,-78 -42,-160 -56,-242 -19,-95 -36,-191 -47,-288 -10,-92 -17,-184 -18,-278 -2,-96 1,-192 12,-287 16,-117 46,-230 79,-343 28,-92 58,-185 98,-272 38,-88 86,-171 136,-253 32,-55 66,-111 103,-163 44,-62 91,-119 143,-173l-53 -58c-34,42 -67,84 -98,127 -73,100 -150,197 -208,306 -44,84 -77,174 -113,264 -32,79 -67,158 -92,240 -37,124 -53,254 -63,383 -6,78 -10,157 -10,235 -1,100 3,200 12,298 17,157 47,312 98,462 47,139 113,272 186,400 76,132 161,257 256,376 92,113 189,221 299,317 85,74 176,141 270,205 92,60 180,128 285,153 87,22 177,24 263,11z"/>
  <path class="fil1 str1" d="M8550 12907l3921 -12 -21 2974c11,523 -127,1050 -491,1421 -383,391 -927,580 -1470,511 -529,61 -1059,-122 -1437,-499 -381,-378 -519,-926 -502,-1468l0 -2927zm-49 -61l4020 -12 -22 3049c12,537 -130,1077 -503,1457 -393,401 -951,594 -1507,524 -543,63 -1086,-125 -1474,-511 -391,-388 -533,-950 -514,-1506l0 -3001z"/>
  <path class="fil1 str1" d="M8600 12969l3821 -11 -21 2898c11,510 -123,1023 -478,1384 -373,381 -903,565 -1432,498 -516,59 -1032,-119 -1401,-486 -372,-369 -506,-903 -489,-1431l0 -2852z"/>
  <path class="fil1" d="M7246 18784c44,61 102,110 167,147 61,32 126,66 192,53 74,-13 137,-63 172,-133 -32,3 -64,0 -97,-6 -108,-23 -194,-106 -254,-206 -45,-72 -69,-154 -75,-241 65,68 148,114 240,129 82,14 167,-2 246,-31l162 -57 13 269c1,43 14,87 42,120 32,41 84,52 134,66 58,17 119,30 170,62 37,21 67,51 91,85 -50,9 -100,21 -149,36 -94,26 -183,68 -277,97 -173,51 -357,50 -513,-50 -122,-79 -217,-198 -267,-339l3 0z"/>
  <path class="fil1" d="M13739 18796c-45,60 -102,111 -167,146 -62,34 -126,66 -192,54 -74,-13 -137,-63 -171,-133 32,2 65,0 94,-8 109,-21 196,-105 255,-206 44,-72 69,-156 74,-242 -63,69 -147,116 -237,131 -84,16 -167,-3 -247,-31l-161 -56 -12 268c-1,44 -16,88 -42,121 -33,40 -86,53 -135,67 -58,17 -117,29 -170,59 -36,23 -67,51 -91,87 52,8 101,21 151,34 93,27 181,71 274,98 175,54 360,48 513,-50 122,-78 216,-198 266,-340l-3 0z"/>
  <path class="fil1" d="M8014 18704c154,-3 308,-13 462,-28 59,-6 118,-9 176,-18 90,-15 179,-36 267,-58 123,-30 247,-63 368,-95 137,-37 272,-66 409,-97 153,-38 304,-79 458,-89 71,-6 142,-2 212,-2 203,-7 408,-3 607,27 224,35 446,85 664,143 146,38 291,82 438,114 138,32 277,57 417,73 87,11 174,20 261,22l237 7 2 -660c-191,-8 -382,-26 -572,-53 -252,-39 -501,-99 -746,-165 -188,-51 -374,-103 -565,-138 -401,-71 -812,-65 -1214,4 -262,42 -516,117 -772,186 -155,43 -311,84 -471,109 -119,18 -238,26 -359,35 -98,7 -194,11 -291,12l15 670 -3 2z"/>
 </g>
</svg>