<svg xmlns="http://www.w3.org/2000/svg" xml:space="preserve" style="shape-rendering:geometricPrecision; text-rendering:geometricPrecision; image-rendering:optimizeQuality; fill-rule:evenodd; clip-rule:evenodd" xmlns:xlink="http://www.w3.org/1999/xlink" viewBox="9883.94 12817.94 1232.12 3038.12">
 <defs>
  <style type="text/css">
   <![CDATA[
    .str0 {stroke:black;stroke-width:7.62}
    .fil0 {fill:black}
   ]]>
  </style>
 </defs>
 <g id="Camada_x0020_1">
  <metadata id="CorelCorpID_0Corel-Layer"/>
  <polygon class="fil0 str0" points="9904,12837 11097,12837 11097,12897 9904,12897 "/>
  <path class="fil0 str0" d="M10053 12972l128 0 0 143 0 429 -257 0 0 -286c39,-42 71,-91 93,-143 19,-46 31,-94 36,-143zm895 0l-128 0 0 143 0 429 257 0 0 -286c-39,-42 -70,-91 -92,-143 -19,-46 -31,-94 -36,-143zm-1044 -27l1193 0 -1 2816 -473 0 -123 -2237 -127 2237 -469 -1 0 -2814z"/>
  <polygon class="fil0 str0" points="10627,15837 11096,15837 11096,15778 10627,15778 "/>
  <polygon class="fil0 str0" points="9903,15837 10373,15837 10373,15777 9903,15777 "/>
  <path class="fil0 str0" d="M10938 12990l-102 0 0 134 0 403 224 0 0 -268c-35,-39 -63,-84 -84,-132 -19,-43 -32,-89 -38,-137z"/>
  <path class="fil0 str0" d="M10062 12991l103 -1 0 134 0 403 -224 0 0 -268c35,-39 63,-84 84,-132 18,-43 31,-89 36,-136z"/>
 </g>
</svg>