<svg xmlns="http://www.w3.org/2000/svg" xml:space="preserve" style="shape-rendering:geometricPrecision; text-rendering:geometricPrecision; image-rendering:optimizeQuality; fill-rule:evenodd; clip-rule:evenodd" xmlns:xlink="http://www.w3.org/1999/xlink" viewBox="9202.94 12949.94 2576.06 3029.12">
 <defs>
  <style type="text/css">
   <![CDATA[
    .str0 {stroke:black;stroke-width:7.62}
    .fil0 {fill:black}
   ]]>
  </style>
 </defs>
 <g id="Camada_x0020_1">
  <metadata id="CorelCorpID_0Corel-Layer"/>
  <path class="fil0 str0" d="M9222 14967c8,12 16,28 24,36 24,28 61,40 93,40l185 0c24,0 44,-12 61,-24 36,-28 36,-77 36,-124l0 -217 52 -861 76 0 -108 1982c64,16 129,32 193,48 84,20 169,36 258,56 112,21 221,41 333,57l4 -1918 -459 -599 105 -148 -157 -16 36 -310c-68,16 -137,44 -197,81 -84,48 -153,117 -217,189 -101,121 -149,273 -201,427 -52,164 -68,338 -88,507 -16,124 -28,249 -28,374l0 418 0 4z"/>
  <polygon class="fil0 str0" points="10203,12976 10782,12972 10786,13253 10508,13973 10481,13973 10203,13257 "/>
  <path class="fil0" d="M10722 14661c0,-21 -12,-36 -28,-44 -16,-8 -36,-8 -52,0 -16,8 -28,24 -28,44 0,20 12,40 28,48 16,8 37,8 52,0 16,-8 28,-28 28,-48zm16 313c0,-20 -12,-36 -28,-44 -16,-8 -36,-8 -52,0 -16,8 -28,24 -28,44 0,20 12,41 28,48 16,8 36,8 52,0 16,-8 28,-28 28,-48zm-24 -627c0,-20 -12,-36 -28,-44 -16,-8 -36,-8 -52,0 -16,8 -28,24 -28,44 0,20 12,40 28,48 16,8 36,8 52,0 16,-8 28,-28 28,-48zm1062 616l-24 36 -92 40 -181 0 -64 -24 -32 -125 -4 -217 -48 -861 -76 0 108 1987 -193 44c-84,20 -173,40 -258,56 -112,24 -225,44 -338,64l-4 -1926 458 -599 -104 -149 161 -16 -41 -309c73,16 137,44 201,81 81,48 153,117 213,189 101,121 153,273 201,426 52,165 72,334 92,507 16,125 28,249 28,374l-4 418 0 4z"/>
 </g>
</svg>